<svg xmlns="http://www.w3.org/2000/svg" viewBox="0 0 100 100">
  <!-- Small shadow/dirt mound -->
  <ellipse cx="50" cy="75" rx="25" ry="10" fill="#65a30d" />
  <ellipse cx="50" cy="72" rx="18" ry="7" fill="#4d2b18" />
  <!-- Carrot top sticking out -->
  <path d="M38 68 Q50 85 62 68 Q50 62 38 68 Z" fill="#ea580c" />
  <path d="M40 68 Q50 80 60 68 Q50 64 40 68 Z" fill="#f97316" />
  <!-- Leaves -->
  <path d="M50 65 Q35 25 25 35 Q40 45 50 65 Z" fill="#16a34a" />
  <path d="M50 65 Q50 15 50 20 Q55 45 50 65 Z" fill="#15803d" />
  <path d="M50 65 Q65 25 75 35 Q60 45 50 65 Z" fill="#16a34a" />
  <path d="M50 68 Q30 45 20 55 Q40 60 50 68 Z" fill="#22c55e" />
  <path d="M50 68 Q70 45 80 55 Q60 60 50 68 Z" fill="#22c55e" />
</svg>
